<svg enable-background="new 0 0 396.1 72.4" viewBox="0 0 396.1 72.4" xmlns="http://www.w3.org/2000/svg"><g fill="#fff"><path d="m44.2.4v25.4h-38.6v-25.4h-5.6v56.6h5.6v-26.3h38.6v26.3h5.5v-56.6z"/><path d="m66.7.4h5.6v56.6h-5.6z"/><path d="m88 .4v56.6h38.2v-4.9h-32.7v-51.7z"/><path d="m135.4.4v56.6h38.1v-4.9h-32.6v-51.7z"/><path d="m209.8.2-28.2 56.8h6.3l9.3-19h29.8l9.5 19h6.3l-29-56.8h-4zm2 7.9 12.6 25h-24.9z"/><path d="m305.9 72.3c-5.3-.1-10.3-2.3-14-6-5.6-5.2-10.3-12.9-14.5-19.7-4.6-7.5-8.6-14-12-14h-9.1v24.4h-5.6v-56.6h17.3c5.2 0 9 .5 12.1 1.6 6.9 2.5 10.6 7.3 10.6 14.1 0 8.4-6.3 14.2-17 15.6 2.4 2 5 6.3 8.1 11.6 3.9 6.5 8.4 13.9 13.7 19 3.5 3.4 7.1 5 10.8 5 1.8 0 3.6-.2 5.3-.7l.6-.2 1.3 4.9-.5.2c-2.3.6-4.7.9-7.1.8m-39.9-44.7c3.3.1 6.7-.2 9.9-1.1 5.9-1.8 9-5.4 9-10.7 0-4-2.5-7.5-6.2-8.9-3.2-1.3-6.5-1.6-10.8-1.6h-11.6v22.2z"/><path d="m343 .4-20.4 29-21.2-29h-6.5l24.7 34v22.6h5.6v-22.5l24.2-34.1z"/><path d="m372.2 57.9c-9 0-16.7-2.3-21.3-6.4l-.4-.3 3.2-4 .4.4c4 3.5 10.3 5.4 18 5.4 8.7 0 18.1-3.2 18.1-12 0-7.2-7.5-8.4-16.2-9.8-6.3-1-12.9-2.1-17-5.8-2.8-2.5-4.3-6-4.1-9.7.1-9.6 8.6-15.7 21.7-15.7 8.6 0 16.2 2.7 19.6 5.2l.4.3-2.6 4.2-.5-.3c-5-3-10.7-4.5-16.5-4.4-11.9 0-16.1 5.4-16.1 10.4 0 8.1 8.2 9.4 16.9 10.7 9.5 1.5 20.4 3.2 20.4 14.9-.1 10.3-9.5 16.9-24 16.9"/><path d="m44.2.4v25.4h-38.6v-25.4h-5.6v56.6h5.6v-26.3h38.6v26.3h5.5v-56.6z"/><path d="m66.7.4h5.6v56.6h-5.6z"/><path d="m88 .4v56.6h38.2v-4.9h-32.7v-51.7z"/><path d="m135.4.4v56.6h38.1v-4.9h-32.6v-51.7z"/><path d="m209.8.2-28.2 56.8h6.3l9.3-19h29.8l9.5 19h6.3l-29-56.8h-4zm2 7.9 12.6 25h-24.9z"/><path d="m305.9 72.3c-5.3-.1-10.3-2.3-14-6-5.6-5.2-10.3-12.9-14.5-19.7-4.6-7.5-8.6-14-12-14h-9.1v24.4h-5.6v-56.6h17.3c5.2 0 9 .5 12.1 1.6 6.9 2.5 10.6 7.3 10.6 14.1 0 8.4-6.3 14.2-17 15.6 2.4 2 5 6.3 8.1 11.6 3.9 6.5 8.4 13.9 13.7 19 3.5 3.4 7.1 5 10.8 5 1.8 0 3.6-.2 5.3-.7l.6-.2 1.3 4.9-.5.2c-2.3.6-4.7.9-7.1.8m-39.9-44.7c3.3.1 6.7-.2 9.9-1.1 5.9-1.8 9-5.4 9-10.7 0-4-2.5-7.5-6.2-8.9-3.2-1.3-6.5-1.6-10.8-1.6h-11.6v22.2z"/><path d="m343 .4-20.4 29-21.2-29h-6.5l24.7 34v22.6h5.6v-22.5l24.2-34.1z"/><path d="m372.2 57.9c-9 0-16.7-2.3-21.3-6.4l-.4-.3 3.2-4 .4.4c4 3.5 10.3 5.4 18 5.4 8.7 0 18.1-3.2 18.1-12 0-7.2-7.5-8.4-16.2-9.8-6.3-1-12.9-2.1-17-5.8-2.8-2.5-4.3-6-4.1-9.7.1-9.6 8.6-15.7 21.7-15.7 8.6 0 16.2 2.7 19.6 5.2l.4.3-2.6 4.2-.5-.3c-5-3-10.7-4.5-16.5-4.4-11.9 0-16.1 5.4-16.1 10.4 0 8.1 8.2 9.4 16.9 10.7 9.5 1.5 20.4 3.2 20.4 14.9-.1 10.3-9.5 16.9-24 16.9"/></g></svg>