<svg xmlns="http://www.w3.org/2000/svg" xmlns:xlink="http://www.w3.org/1999/xlink" width="72.585" height="72.585" viewBox="0 0 72.585 72.585">
  <defs>
    <filter id="Path_1103" x="0" y="0" width="72.585" height="72.585" filterUnits="userSpaceOnUse">
      <feOffset dy="3" input="SourceAlpha"/>
      <feGaussianBlur stdDeviation="3" result="blur"/>
      <feFlood flood-opacity="0.161"/>
      <feComposite operator="in" in2="blur"/>
      <feComposite in="SourceGraphic"/>
    </filter>
  </defs>
  <g id="Group_4708" data-name="Group 4708" transform="translate(-40.784 -456.297)">
    <g transform="matrix(1, 0, 0, 1, 40.78, 456.3)" filter="url(#Path_1103)">
      <path id="Path_1103-2" data-name="Path 1103" d="M77.076,462.3A27.293,27.293,0,1,1,49.784,489.59,27.324,27.324,0,0,1,77.076,462.3" transform="translate(-40.78 -456.3)" fill="#3cf"/>
    </g>
    <g id="Group_4714" data-name="Group 4714">
      <g id="Group_4709" data-name="Group 4709">
        <path id="Path_1104" data-name="Path 1104" d="M92.762,479.629a13.049,13.049,0,0,1-3.213.918c.518-.087,1.281-1.024,1.586-1.4a5.917,5.917,0,0,0,1.07-1.949c.028-.055.049-.125-.007-.167a.18.18,0,0,0-.17.014,16.41,16.41,0,0,1-3.817,1.461.254.254,0,0,1-.263-.07,3.088,3.088,0,0,0-.334-.341,6.755,6.755,0,0,0-1.849-1.133,6.437,6.437,0,0,0-2.836-.457,6.777,6.777,0,0,0-2.69.76,6.946,6.946,0,0,0-2.171,1.773,6.685,6.685,0,0,0-1.3,2.6,7.045,7.045,0,0,0-.069,2.741c.021.153.008.174-.131.153-5.243-.78-9.588-2.656-13.116-6.676-.153-.174-.236-.174-.362.014-1.544,2.313-.794,6.031,1.134,7.858.257.244.521.487.806.709a6.663,6.663,0,0,1-2.531-.709c-.153-.1-.23-.041-.243.132a3.964,3.964,0,0,0,.041.752,6.726,6.726,0,0,0,4.145,5.361,3.9,3.9,0,0,0,.841.257,7.462,7.462,0,0,1-2.482.077c-.181-.035-.25.056-.181.23a6.982,6.982,0,0,0,5.215,4.367c.237.041.473.041.71.1-.014.021-.028.021-.042.042-.585.893-2.616,1.557-3.561,1.888a12.761,12.761,0,0,1-5.41.692c-.291-.043-.352-.04-.431,0s-.01.119.084.194c.368.244.744.46,1.126.668a17.873,17.873,0,0,0,3.616,1.447c6.5,1.794,13.819.476,18.7-4.372,3.832-3.807,5.175-9.058,5.175-14.315,0-.205.243-.319.388-.427a12.623,12.623,0,0,0,2.533-2.647.768.768,0,0,0,.156-.507v-.028C92.881,479.546,92.892,479.571,92.762,479.629Z" fill="#fff"/>
      </g>
      <g id="Group_4710" data-name="Group 4710">
        <path id="Path_1105" data-name="Path 1105" d="M70.518,502.578Z" fill="#fff" fill-rule="evenodd"/>
      </g>
      <g id="Group_4711" data-name="Group 4711">
        <path id="Path_1106" data-name="Path 1106" d="M70.518,502.578c-.042,0-.525,0,0,0Z" fill="#fff" fill-rule="evenodd"/>
      </g>
      <g id="Group_4712" data-name="Group 4712">
        <path id="Path_1107" data-name="Path 1107" d="M71.589,502.606c0-.053.563,0,0,0C71.589,502.578,71.658,502.606,71.589,502.606Z" fill="#fff" fill-rule="evenodd"/>
      </g>
      <g id="Group_4713" data-name="Group 4713">
        <path id="Path_1108" data-name="Path 1108" d="M82.84,476.528a.116.116,0,0,1-.131,0Z" fill="#fff" fill-rule="evenodd"/>
      </g>
    </g>
  </g>
</svg>
