<svg xmlns="http://www.w3.org/2000/svg" xmlns:xlink="http://www.w3.org/1999/xlink" width="72.586" height="72.585" viewBox="0 0 72.586 72.585">
  <defs>
    <filter id="Path_1109" x="0" y="0" width="72.586" height="72.585" filterUnits="userSpaceOnUse">
      <feOffset dy="3" input="SourceAlpha"/>
      <feGaussianBlur stdDeviation="3" result="blur"/>
      <feFlood flood-opacity="0.161"/>
      <feComposite operator="in" in2="blur"/>
      <feComposite in="SourceGraphic"/>
    </filter>
  </defs>
  <g id="Group_4715" data-name="Group 4715" transform="translate(-122.32 -391.779)">
    <g id="Group_4716" data-name="Group 4716">
      <g transform="matrix(1, 0, 0, 1, 122.32, 391.78)" filter="url(#Path_1109)">
        <path id="Path_1109-2" data-name="Path 1109" d="M158.613,452.364a27.293,27.293,0,1,1,27.293-27.293A27.324,27.324,0,0,1,158.613,452.364Z" transform="translate(-122.32 -391.78)" fill="#60fc7c"/>
      </g>
    </g>
    <g id="Group_4719" data-name="Group 4719">
      <g id="Group_4717" data-name="Group 4717">
        <path id="Path_1110" data-name="Path 1110" d="M159.9,407.3a16.475,16.475,0,0,0-13.846,25.408l-2.5,5.514a1.438,1.438,0,0,0,1.31,2.034,1.462,1.462,0,0,0,.381-.051l6.9-1.892A16.478,16.478,0,1,0,159.9,407.3Zm0,30.078a13.588,13.588,0,0,1-6.848-1.851,1.44,1.44,0,0,0-1.107-.146l-4.505,1.237,1.569-3.458a1.438,1.438,0,0,0-.143-1.436,13.6,13.6,0,1,1,11.034,5.654Z" fill="#fff" fill-rule="evenodd"/>
      </g>
      <g id="Group_4718" data-name="Group 4718">
        <path id="Path_1111" data-name="Path 1111" d="M166.236,426.251a2.816,2.816,0,0,0-2.4-.541c-.624.255-1.022,1.231-1.426,1.73a.6.6,0,0,1-.773.168,10.873,10.873,0,0,1-5.427-4.649.665.665,0,0,1,.084-.909,3.685,3.685,0,0,0,.986-1.6,3.509,3.509,0,0,0-.441-1.9,4.494,4.494,0,0,0-1.4-2.108,1.917,1.917,0,0,0-2.081.31,4.225,4.225,0,0,0-1.465,3.347,4.729,4.729,0,0,0,.132,1.062,8.78,8.78,0,0,0,1.019,2.349,18.4,18.4,0,0,0,1.064,1.618,16.418,16.418,0,0,0,4.614,4.284,13.947,13.947,0,0,0,2.877,1.368,6.393,6.393,0,0,0,3.35.529,4.056,4.056,0,0,0,3.037-2.259,1.968,1.968,0,0,0,.141-1.153C167.953,427.107,166.878,426.635,166.236,426.251Z" fill="#fff" fill-rule="evenodd"/>
      </g>
    </g>
  </g>
</svg>
